<mxfile host="app.diagrams.net" modified="2023-06-11T11:52:52.056Z" agent="Mozilla/5.0 (Windows NT 10.0; Win64; x64) AppleWebKit/537.36 (KHTML, like Gecko) Chrome/114.0.0.0 Safari/537.36" etag="ChjgQPakIDkH6q67OBK4" version="21.3.7" type="device">
  <diagram name="Page-1" id="EcAKjoITZUHkMCa83CTz">
    <mxGraphModel dx="1461" dy="655" grid="1" gridSize="10" guides="1" tooltips="1" connect="1" arrows="1" fold="1" page="1" pageScale="1" pageWidth="827" pageHeight="1169" math="0" shadow="0">
      <root>
        <mxCell id="0" />
        <mxCell id="1" parent="0" />
        <mxCell id="BvHT_opLtH0Qu6wYnL_E-1" value="" style="swimlane;startSize=0;" vertex="1" parent="1">
          <mxGeometry x="30" y="20" width="750" height="1320" as="geometry" />
        </mxCell>
        <mxCell id="BvHT_opLtH0Qu6wYnL_E-2" value="&lt;font style=&quot;font-size: 18px;&quot;&gt;Study Squad System&lt;/font&gt;" style="text;html=1;align=center;verticalAlign=middle;resizable=0;points=[];autosize=1;strokeColor=none;fillColor=none;" vertex="1" parent="BvHT_opLtH0Qu6wYnL_E-1">
          <mxGeometry x="279" y="5" width="190" height="40" as="geometry" />
        </mxCell>
        <mxCell id="BvHT_opLtH0Qu6wYnL_E-20" style="edgeStyle=orthogonalEdgeStyle;rounded=0;orthogonalLoop=1;jettySize=auto;html=1;exitX=0.5;exitY=0.5;exitDx=0;exitDy=0;exitPerimeter=0;entryX=0;entryY=0.5;entryDx=0;entryDy=0;" edge="1" parent="BvHT_opLtH0Qu6wYnL_E-1" source="BvHT_opLtH0Qu6wYnL_E-3" target="BvHT_opLtH0Qu6wYnL_E-11">
          <mxGeometry relative="1" as="geometry" />
        </mxCell>
        <mxCell id="BvHT_opLtH0Qu6wYnL_E-21" style="edgeStyle=orthogonalEdgeStyle;rounded=0;orthogonalLoop=1;jettySize=auto;html=1;exitX=0.5;exitY=0.5;exitDx=0;exitDy=0;exitPerimeter=0;entryX=0;entryY=0.5;entryDx=0;entryDy=0;" edge="1" parent="BvHT_opLtH0Qu6wYnL_E-1" source="BvHT_opLtH0Qu6wYnL_E-3" target="BvHT_opLtH0Qu6wYnL_E-12">
          <mxGeometry relative="1" as="geometry" />
        </mxCell>
        <mxCell id="BvHT_opLtH0Qu6wYnL_E-22" style="edgeStyle=orthogonalEdgeStyle;rounded=0;orthogonalLoop=1;jettySize=auto;html=1;exitX=0.5;exitY=0.5;exitDx=0;exitDy=0;exitPerimeter=0;entryX=0;entryY=0.5;entryDx=0;entryDy=0;" edge="1" parent="BvHT_opLtH0Qu6wYnL_E-1" source="BvHT_opLtH0Qu6wYnL_E-3" target="BvHT_opLtH0Qu6wYnL_E-13">
          <mxGeometry relative="1" as="geometry" />
        </mxCell>
        <mxCell id="BvHT_opLtH0Qu6wYnL_E-23" style="edgeStyle=orthogonalEdgeStyle;rounded=0;orthogonalLoop=1;jettySize=auto;html=1;exitX=0.5;exitY=0.5;exitDx=0;exitDy=0;exitPerimeter=0;entryX=0;entryY=0.5;entryDx=0;entryDy=0;" edge="1" parent="BvHT_opLtH0Qu6wYnL_E-1" source="BvHT_opLtH0Qu6wYnL_E-3" target="BvHT_opLtH0Qu6wYnL_E-14">
          <mxGeometry relative="1" as="geometry" />
        </mxCell>
        <mxCell id="BvHT_opLtH0Qu6wYnL_E-24" style="edgeStyle=orthogonalEdgeStyle;rounded=0;orthogonalLoop=1;jettySize=auto;html=1;exitX=0.5;exitY=0.5;exitDx=0;exitDy=0;exitPerimeter=0;" edge="1" parent="BvHT_opLtH0Qu6wYnL_E-1" source="BvHT_opLtH0Qu6wYnL_E-3" target="BvHT_opLtH0Qu6wYnL_E-15">
          <mxGeometry relative="1" as="geometry" />
        </mxCell>
        <mxCell id="BvHT_opLtH0Qu6wYnL_E-25" style="edgeStyle=orthogonalEdgeStyle;rounded=0;orthogonalLoop=1;jettySize=auto;html=1;exitX=0.5;exitY=0.5;exitDx=0;exitDy=0;exitPerimeter=0;entryX=0;entryY=0.5;entryDx=0;entryDy=0;" edge="1" parent="BvHT_opLtH0Qu6wYnL_E-1" source="BvHT_opLtH0Qu6wYnL_E-3" target="BvHT_opLtH0Qu6wYnL_E-16">
          <mxGeometry relative="1" as="geometry" />
        </mxCell>
        <mxCell id="BvHT_opLtH0Qu6wYnL_E-26" style="edgeStyle=orthogonalEdgeStyle;rounded=0;orthogonalLoop=1;jettySize=auto;html=1;exitX=0.5;exitY=0.5;exitDx=0;exitDy=0;exitPerimeter=0;entryX=0;entryY=0.5;entryDx=0;entryDy=0;" edge="1" parent="BvHT_opLtH0Qu6wYnL_E-1" source="BvHT_opLtH0Qu6wYnL_E-3" target="BvHT_opLtH0Qu6wYnL_E-17">
          <mxGeometry relative="1" as="geometry" />
        </mxCell>
        <mxCell id="BvHT_opLtH0Qu6wYnL_E-27" style="edgeStyle=orthogonalEdgeStyle;rounded=0;orthogonalLoop=1;jettySize=auto;html=1;exitX=0.5;exitY=0.5;exitDx=0;exitDy=0;exitPerimeter=0;entryX=0;entryY=0.5;entryDx=0;entryDy=0;" edge="1" parent="BvHT_opLtH0Qu6wYnL_E-1" source="BvHT_opLtH0Qu6wYnL_E-3" target="BvHT_opLtH0Qu6wYnL_E-18">
          <mxGeometry relative="1" as="geometry" />
        </mxCell>
        <mxCell id="BvHT_opLtH0Qu6wYnL_E-28" style="edgeStyle=orthogonalEdgeStyle;rounded=0;orthogonalLoop=1;jettySize=auto;html=1;exitX=0.5;exitY=0.5;exitDx=0;exitDy=0;exitPerimeter=0;entryX=0;entryY=0.5;entryDx=0;entryDy=0;" edge="1" parent="BvHT_opLtH0Qu6wYnL_E-1" source="BvHT_opLtH0Qu6wYnL_E-3" target="BvHT_opLtH0Qu6wYnL_E-19">
          <mxGeometry relative="1" as="geometry" />
        </mxCell>
        <mxCell id="BvHT_opLtH0Qu6wYnL_E-32" style="edgeStyle=orthogonalEdgeStyle;rounded=0;orthogonalLoop=1;jettySize=auto;html=1;exitX=0.5;exitY=0.5;exitDx=0;exitDy=0;exitPerimeter=0;entryX=0;entryY=0.5;entryDx=0;entryDy=0;" edge="1" parent="BvHT_opLtH0Qu6wYnL_E-1" source="BvHT_opLtH0Qu6wYnL_E-3" target="BvHT_opLtH0Qu6wYnL_E-29">
          <mxGeometry relative="1" as="geometry" />
        </mxCell>
        <mxCell id="BvHT_opLtH0Qu6wYnL_E-46" style="edgeStyle=orthogonalEdgeStyle;rounded=0;orthogonalLoop=1;jettySize=auto;html=1;entryX=0;entryY=0.5;entryDx=0;entryDy=0;" edge="1" parent="BvHT_opLtH0Qu6wYnL_E-1" source="BvHT_opLtH0Qu6wYnL_E-3" target="BvHT_opLtH0Qu6wYnL_E-39">
          <mxGeometry relative="1" as="geometry">
            <Array as="points">
              <mxPoint x="120" y="365" />
              <mxPoint x="120" y="880" />
            </Array>
          </mxGeometry>
        </mxCell>
        <mxCell id="BvHT_opLtH0Qu6wYnL_E-3" value="Student" style="shape=umlActor;verticalLabelPosition=bottom;verticalAlign=top;html=1;outlineConnect=0;" vertex="1" parent="BvHT_opLtH0Qu6wYnL_E-1">
          <mxGeometry x="60" y="320" width="50" height="90" as="geometry" />
        </mxCell>
        <mxCell id="BvHT_opLtH0Qu6wYnL_E-35" style="edgeStyle=orthogonalEdgeStyle;rounded=0;orthogonalLoop=1;jettySize=auto;html=1;exitX=0.5;exitY=0.5;exitDx=0;exitDy=0;exitPerimeter=0;entryX=0;entryY=0.5;entryDx=0;entryDy=0;" edge="1" parent="BvHT_opLtH0Qu6wYnL_E-1" target="BvHT_opLtH0Qu6wYnL_E-30">
          <mxGeometry relative="1" as="geometry">
            <mxPoint x="80" y="1075" as="sourcePoint" />
          </mxGeometry>
        </mxCell>
        <mxCell id="BvHT_opLtH0Qu6wYnL_E-36" style="edgeStyle=orthogonalEdgeStyle;rounded=0;orthogonalLoop=1;jettySize=auto;html=1;exitX=0.5;exitY=0.5;exitDx=0;exitDy=0;exitPerimeter=0;entryX=0.002;entryY=0.63;entryDx=0;entryDy=0;entryPerimeter=0;" edge="1" parent="BvHT_opLtH0Qu6wYnL_E-1" target="BvHT_opLtH0Qu6wYnL_E-31">
          <mxGeometry relative="1" as="geometry">
            <mxPoint x="80" y="1075" as="sourcePoint" />
          </mxGeometry>
        </mxCell>
        <mxCell id="BvHT_opLtH0Qu6wYnL_E-37" style="edgeStyle=orthogonalEdgeStyle;rounded=0;orthogonalLoop=1;jettySize=auto;html=1;exitX=0.5;exitY=0.5;exitDx=0;exitDy=0;exitPerimeter=0;entryX=0;entryY=0.5;entryDx=0;entryDy=0;" edge="1" parent="BvHT_opLtH0Qu6wYnL_E-1" target="BvHT_opLtH0Qu6wYnL_E-33">
          <mxGeometry relative="1" as="geometry">
            <mxPoint x="80" y="1075" as="sourcePoint" />
          </mxGeometry>
        </mxCell>
        <mxCell id="BvHT_opLtH0Qu6wYnL_E-38" style="edgeStyle=orthogonalEdgeStyle;rounded=0;orthogonalLoop=1;jettySize=auto;html=1;exitX=0.5;exitY=0.5;exitDx=0;exitDy=0;exitPerimeter=0;entryX=0;entryY=0.5;entryDx=0;entryDy=0;" edge="1" parent="BvHT_opLtH0Qu6wYnL_E-1" target="BvHT_opLtH0Qu6wYnL_E-34">
          <mxGeometry relative="1" as="geometry">
            <mxPoint x="80" y="1075" as="sourcePoint" />
          </mxGeometry>
        </mxCell>
        <mxCell id="BvHT_opLtH0Qu6wYnL_E-42" style="edgeStyle=orthogonalEdgeStyle;rounded=0;orthogonalLoop=1;jettySize=auto;html=1;exitX=0.5;exitY=0.5;exitDx=0;exitDy=0;exitPerimeter=0;entryX=0;entryY=0.5;entryDx=0;entryDy=0;" edge="1" parent="BvHT_opLtH0Qu6wYnL_E-1">
          <mxGeometry relative="1" as="geometry">
            <mxPoint x="82" y="1075" as="sourcePoint" />
            <mxPoint x="286" y="950" as="targetPoint" />
            <Array as="points">
              <mxPoint x="82" y="1076" />
              <mxPoint x="120" y="1076" />
              <mxPoint x="120" y="950" />
            </Array>
          </mxGeometry>
        </mxCell>
        <mxCell id="BvHT_opLtH0Qu6wYnL_E-44" style="edgeStyle=orthogonalEdgeStyle;rounded=0;orthogonalLoop=1;jettySize=auto;html=1;exitX=0.5;exitY=0.5;exitDx=0;exitDy=0;exitPerimeter=0;entryX=0;entryY=0.5;entryDx=0;entryDy=0;" edge="1" parent="BvHT_opLtH0Qu6wYnL_E-1" source="BvHT_opLtH0Qu6wYnL_E-4" target="BvHT_opLtH0Qu6wYnL_E-39">
          <mxGeometry relative="1" as="geometry">
            <mxPoint x="10" y="1075" as="sourcePoint" />
            <mxPoint x="214" y="880" as="targetPoint" />
            <Array as="points">
              <mxPoint x="120" y="1075" />
              <mxPoint x="120" y="880" />
            </Array>
          </mxGeometry>
        </mxCell>
        <mxCell id="BvHT_opLtH0Qu6wYnL_E-4" value="Teacher" style="shape=umlActor;verticalLabelPosition=bottom;verticalAlign=top;html=1;outlineConnect=0;" vertex="1" parent="BvHT_opLtH0Qu6wYnL_E-1">
          <mxGeometry x="45" y="1030" width="50" height="90" as="geometry" />
        </mxCell>
        <mxCell id="BvHT_opLtH0Qu6wYnL_E-11" value="Get Teacher By Name&amp;nbsp;" style="ellipse;whiteSpace=wrap;html=1;" vertex="1" parent="BvHT_opLtH0Qu6wYnL_E-1">
          <mxGeometry x="279" y="110" width="110" height="60" as="geometry" />
        </mxCell>
        <mxCell id="BvHT_opLtH0Qu6wYnL_E-12" value="Get Teacher By Rate" style="ellipse;whiteSpace=wrap;html=1;" vertex="1" parent="BvHT_opLtH0Qu6wYnL_E-1">
          <mxGeometry x="279" y="180" width="110" height="60" as="geometry" />
        </mxCell>
        <mxCell id="BvHT_opLtH0Qu6wYnL_E-13" value="Get Teacher By Major" style="ellipse;whiteSpace=wrap;html=1;" vertex="1" parent="BvHT_opLtH0Qu6wYnL_E-1">
          <mxGeometry x="279" y="250" width="110" height="60" as="geometry" />
        </mxCell>
        <mxCell id="BvHT_opLtH0Qu6wYnL_E-14" value="Get Teacher By Language Spoken" style="ellipse;whiteSpace=wrap;html=1;" vertex="1" parent="BvHT_opLtH0Qu6wYnL_E-1">
          <mxGeometry x="279" y="320" width="110" height="60" as="geometry" />
        </mxCell>
        <mxCell id="BvHT_opLtH0Qu6wYnL_E-15" value="Get Teacher By Gender" style="ellipse;whiteSpace=wrap;html=1;" vertex="1" parent="BvHT_opLtH0Qu6wYnL_E-1">
          <mxGeometry x="279" y="390" width="110" height="60" as="geometry" />
        </mxCell>
        <mxCell id="BvHT_opLtH0Qu6wYnL_E-16" value="Reserve Session" style="ellipse;whiteSpace=wrap;html=1;" vertex="1" parent="BvHT_opLtH0Qu6wYnL_E-1">
          <mxGeometry x="279" y="460" width="110" height="60" as="geometry" />
        </mxCell>
        <mxCell id="BvHT_opLtH0Qu6wYnL_E-17" value="Show Reservation Order" style="ellipse;whiteSpace=wrap;html=1;" vertex="1" parent="BvHT_opLtH0Qu6wYnL_E-1">
          <mxGeometry x="279" y="530" width="110" height="60" as="geometry" />
        </mxCell>
        <mxCell id="BvHT_opLtH0Qu6wYnL_E-18" value="Rate Teacher" style="ellipse;whiteSpace=wrap;html=1;" vertex="1" parent="BvHT_opLtH0Qu6wYnL_E-1">
          <mxGeometry x="279" y="600" width="110" height="60" as="geometry" />
        </mxCell>
        <mxCell id="BvHT_opLtH0Qu6wYnL_E-19" value="Review Teacher" style="ellipse;whiteSpace=wrap;html=1;" vertex="1" parent="BvHT_opLtH0Qu6wYnL_E-1">
          <mxGeometry x="279" y="670" width="110" height="60" as="geometry" />
        </mxCell>
        <mxCell id="BvHT_opLtH0Qu6wYnL_E-29" value="Cancel Reservation" style="ellipse;whiteSpace=wrap;html=1;" vertex="1" parent="BvHT_opLtH0Qu6wYnL_E-1">
          <mxGeometry x="279" y="740" width="110" height="60" as="geometry" />
        </mxCell>
        <mxCell id="BvHT_opLtH0Qu6wYnL_E-30" value="Accept&lt;br&gt;Reservation" style="ellipse;whiteSpace=wrap;html=1;" vertex="1" parent="BvHT_opLtH0Qu6wYnL_E-1">
          <mxGeometry x="284" y="1020" width="110" height="60" as="geometry" />
        </mxCell>
        <mxCell id="BvHT_opLtH0Qu6wYnL_E-31" value="Decline&lt;br&gt;Reservation" style="ellipse;whiteSpace=wrap;html=1;" vertex="1" parent="BvHT_opLtH0Qu6wYnL_E-1">
          <mxGeometry x="284" y="1090" width="110" height="60" as="geometry" />
        </mxCell>
        <mxCell id="BvHT_opLtH0Qu6wYnL_E-33" value="Show Student Account" style="ellipse;whiteSpace=wrap;html=1;" vertex="1" parent="BvHT_opLtH0Qu6wYnL_E-1">
          <mxGeometry x="284" y="1160" width="110" height="60" as="geometry" />
        </mxCell>
        <mxCell id="BvHT_opLtH0Qu6wYnL_E-34" value="Show All Reservation List" style="ellipse;whiteSpace=wrap;html=1;" vertex="1" parent="BvHT_opLtH0Qu6wYnL_E-1">
          <mxGeometry x="284" y="1230" width="110" height="60" as="geometry" />
        </mxCell>
        <mxCell id="BvHT_opLtH0Qu6wYnL_E-39" value="LogIn" style="ellipse;whiteSpace=wrap;html=1;" vertex="1" parent="BvHT_opLtH0Qu6wYnL_E-1">
          <mxGeometry x="274" y="850" width="110" height="60" as="geometry" />
        </mxCell>
        <mxCell id="BvHT_opLtH0Qu6wYnL_E-40" value="Register" style="ellipse;whiteSpace=wrap;html=1;" vertex="1" parent="BvHT_opLtH0Qu6wYnL_E-1">
          <mxGeometry x="269" y="920" width="110" height="60" as="geometry" />
        </mxCell>
      </root>
    </mxGraphModel>
  </diagram>
</mxfile>
